<svg xmlns="http://www.w3.org/2000/svg" width="106.893" height="23.492" viewBox="0 0 106.893 23.492">
  <g id="Logo" transform="translate(-279.112 2277.386)">
    <path id="Trazado_1" data-name="Trazado 1" d="M12.66-.394a11.877,11.877,0,0,1-4.407-.8,10.415,10.415,0,0,1-3.5-2.249A10.384,10.384,0,0,1,2.442-6.854a10.888,10.888,0,0,1-.83-4.286,10.888,10.888,0,0,1,.83-4.286,10.272,10.272,0,0,1,2.324-3.411,10.582,10.582,0,0,1,3.517-2.249,11.877,11.877,0,0,1,4.407-.8,12.032,12.032,0,0,1,4.316.77,8.668,8.668,0,0,1,3.411,2.309L19-17.388a7.858,7.858,0,0,0-2.868-1.917,9.55,9.55,0,0,0-3.381-.589,9.461,9.461,0,0,0-3.532.649A8.426,8.426,0,0,0,6.381-17.4a8.654,8.654,0,0,0-1.887,2.777,8.759,8.759,0,0,0-.679,3.486,8.759,8.759,0,0,0,.679,3.486A8.654,8.654,0,0,0,6.381-4.877,8.426,8.426,0,0,0,9.219-3.036a9.461,9.461,0,0,0,3.532.649,9.337,9.337,0,0,0,3.381-.6A8.031,8.031,0,0,0,19-4.922L20.417-3.5a8.808,8.808,0,0,1-3.411,2.324A11.91,11.91,0,0,1,12.66-.394ZM29.744-.575,29.714-21.7h2.2l.03,19.2h11.8l.03,1.932Zm18.9,0L58.3-21.7h2.2L70.162-.575H67.807L58.933-20.407h.906L50.964-.575ZM61.781-5.2ZM81.9-.575,74.78-21.7h2.294L83.745-1.813H82.6L89.48-21.7h2.053L98.324-1.813H97.238L103.969-21.7h2.143L98.988-.575H96.634l-6.49-18.866h.6L84.228-.575Z" transform="translate(278.5 -2254.5)" fill="#ed743d" stroke="#ed743d" stroke-width="2"/>
  </g>
</svg>
